C:\GBW_MyPrograms\KinderuniversiteitApp\Resultaten\Ellis_v10102025\Volwassenen\Volwassenen_v2.mot
version=1
nRows=8
nColumns=29
inDegrees=yes
endheader
                time	         pelvis_tilt	           pelvis_tx	           pelvis_ty	       hip_flexion_l	       hip_flexion_r	        knee_angle_l	        knee_angle_r	       ankle_angle_l	       ankle_angle_r	    lumbar_extension	hamstrings_r/activation	bifemsh_r/activation	glut_max_r/activation	iliopsoas_r/activation	rect_fem_r/activation	  vasti_r/activation	gastroc_r/activation	 soleus_r/activation	tib_ant_r/activation	hamstrings_l/activation	bifemsh_l/activation	glut_max_l/activation	iliopsoas_l/activation	rect_fem_l/activation	  vasti_l/activation	gastroc_l/activation	 soleus_l/activation	tib_ant_l/activation	
          0.00000000	         -4.95333919	          0.00000000	          1.02550915	         -9.01784516	         23.85164071	        -15.14910363	        -11.03487916	          0.96061863	          6.80094797	         -1.99010650	          0.30731645	          0.05000000	          0.10399519	          0.05000000	          0.08161337	          0.05048154	          0.05000000	          0.05000000	          0.24149124	          0.05000000	          0.07458385	          0.05088054	          0.65837052	          0.11942666	          0.06861617	          0.13322585	          0.25363854	          0.05000000	
          0.02000000	         -5.03510846	          0.02792258	          1.02407090	         -8.04941737	         22.18922955	        -19.39822569	        -10.15446320	         -0.73769286	          6.74316765	         -1.41983018	          0.25382394	          0.05000002	          0.11216058	          0.05000000	          0.06121003	          0.15971898	          0.05000001	          0.06136452	          0.25446067	          0.05000002	          0.05593790	          0.05000000	          0.51699590	          0.08956999	          0.05146213	          0.09991939	          0.19022890	          0.05000000	
          0.04000000	         -5.09213753	          0.05518196	          1.02274366	         -6.00061662	         20.45529133	        -25.36853277	         -9.78812644	         -3.15572556	          6.53369059	         -0.95019642	          0.19036796	          0.05000000	          0.15175023	          0.05000000	          0.05000007	          0.22159951	          0.05000000	          0.05000000	          0.30806020	          0.05000000	          0.05000000	          0.05000000	          0.40882644	          0.07101285	          0.05000000	          0.07493954	          0.14267168	          0.23247793	
          0.06000000	         -5.12956006	          0.08056033	          1.02237382	         -3.36485626	         19.02138264	        -31.64946812	         -9.82100660	         -3.53234311	          6.61151071	         -0.71583321	          0.14371189	          0.05000001	          0.14507112	          0.05000000	          0.05000002	          0.26230944	          0.05000000	          0.05000000	          0.31847017	          0.05000000	          0.11873417	          0.05000000	          0.30661983	          0.19625596	          0.05000000	          0.06509687	          0.10700376	          0.27068411	
          0.08000000	         -5.16208662	          0.10434779	          1.02356146	         -0.64960148	         17.76490339	        -36.76317332	        -10.03455412	         -2.83287823	          6.90855689	         -0.66502495	          0.11764753	          0.05000001	          0.13993520	          0.05000000	          0.05000001	          0.26613341	          0.05000000	          0.05000000	          0.30122974	          0.06407313	          0.20151357	          0.05000000	          0.22996487	          0.29911153	          0.05000000	          0.07479318	          0.08025282	          0.24957223	
          0.10000000	         -5.18794990	          0.12725407	          1.02597099	          1.95110482	         16.34364210	        -40.37169228	         -9.88502673	         -1.80364692	          7.37811254	         -0.71901806	          0.10466138	          0.05000002	          0.13682503	          0.05000000	          0.05000000	          0.22687704	          0.05000000	          0.05000000	          0.27802475	          0.07075008	          0.29623303	          0.05000000	          0.17815428	          0.34544794	          0.05000000	          0.07424386	          0.06018961	          0.22413625	
          0.12000000	         -5.19952795	          0.14959162	          1.02891400	          4.46725349	         14.70861118	        -42.76222838	         -9.31803413	         -0.63917921	          7.86694620	         -0.85291482	          0.09875416	          0.05000001	          0.13386679	          0.05000000	          0.05000000	          0.18636235	          0.05000000	          0.05000000	          0.25719061	          0.05306260	          0.40157081	          0.05000000	          0.14902432	          0.34370122	          0.05000000	          0.06112745	          0.05000000	          0.20001568	
          0.14000000	         -5.18825706	          0.17144667	          1.03176727	          7.00049019	         12.93677054	        -44.38413632	         -8.48921783	          0.50118058	          8.28433118	         -1.06873808	          0.08961787	          0.05000001	          0.12185091	          0.05000000	          0.05000000	          0.16094144	          0.05000000	          0.05000000	          0.24227366	          0.05000000	          0.50167358	          0.05000000	          0.13536920	          0.31854952	          0.05000000	          0.05000000	          0.05000000	          0.19086287	
